<?xml version="1.0" encoding="UTF-8" standalone="no"?>
<!-- Generator: Adobe Illustrator 16.2.1, SVG Export Plug-In . SVG Version: 6.00 Build 0)  -->

<svg
   xmlns:dc="http://purl.org/dc/elements/1.1/"
   xmlns:cc="http://creativecommons.org/ns#"
   xmlns:rdf="http://www.w3.org/1999/02/22-rdf-syntax-ns#"
   xmlns:svg="http://www.w3.org/2000/svg"
   xmlns="http://www.w3.org/2000/svg"
   xmlns:xlink="http://www.w3.org/1999/xlink"
   xmlns:sodipodi="http://sodipodi.sourceforge.net/DTD/sodipodi-0.dtd"
   xmlns:inkscape="http://www.inkscape.org/namespaces/inkscape"
   version="1.1"
   id="Layer_1"
   x="0px"
   y="0px"
   width="512px"
   height="512px"
   viewBox="0 0 512 512"
   style="enable-background:new 0 0 512 512;"
   xml:space="preserve"
   inkscape:version="0.48.0 r9654"
   sodipodi:docname="nextcellent_logo_v1.svg"><metadata
   id="metadata3013"><rdf:RDF><cc:Work
       rdf:about=""><dc:format>image/svg+xml</dc:format><dc:type
         rdf:resource="http://purl.org/dc/dcmitype/StillImage" /><dc:title></dc:title></cc:Work></rdf:RDF></metadata><defs
   id="defs3011"><linearGradient
   inkscape:collect="always"
   id="linearGradient4198"><stop
     style="stop-color:#000000;stop-opacity:1;"
     offset="0"
     id="stop4200" /><stop
     style="stop-color:#000000;stop-opacity:0;"
     offset="1"
     id="stop4202" /></linearGradient>
	
	
<linearGradient
   inkscape:collect="always"
   xlink:href="#linearGradient4198"
   id="linearGradient4204"
   x1="155.12119"
   y1="70.657501"
   x2="147.11327"
   y2="501.23706"
   gradientUnits="userSpaceOnUse" /><linearGradient
   inkscape:collect="always"
   xlink:href="#linearGradient4198"
   id="linearGradient4206"
   gradientUnits="userSpaceOnUse"
   x1="211.13861"
   y1="63.484879"
   x2="178.13861"
   y2="589.48486" /><linearGradient
   inkscape:collect="always"
   xlink:href="#linearGradient4198"
   id="linearGradient4208"
   gradientUnits="userSpaceOnUse"
   x1="155.12119"
   y1="70.657501"
   x2="147.11327"
   y2="501.23706" /><linearGradient
   inkscape:collect="always"
   xlink:href="#linearGradient4198"
   id="linearGradient4212"
   gradientUnits="userSpaceOnUse"
   x1="155.12119"
   y1="70.657501"
   x2="147.11327"
   y2="501.23706" /><linearGradient
   inkscape:collect="always"
   xlink:href="#linearGradient4198"
   id="linearGradient4216"
   gradientUnits="userSpaceOnUse"
   x1="155.12119"
   y1="70.657501"
   x2="147.11327"
   y2="501.23706" /><linearGradient
   inkscape:collect="always"
   xlink:href="#linearGradient4198"
   id="linearGradient4220"
   gradientUnits="userSpaceOnUse"
   x1="374.41492"
   y1="188.92828"
   x2="368.79892"
   y2="289.28696"
   gradientTransform="translate(-17.13861,-6.4848796)" /><linearGradient
   inkscape:collect="always"
   xlink:href="#linearGradient4198"
   id="linearGradient4223"
   gradientUnits="userSpaceOnUse"
   x1="349.14041"
   y1="294.06161"
   x2="354.85019"
   y2="736.70966"
   gradientTransform="matrix(1.185083,0.04677063,-0.03325062,0.84251048,-17.13861,-6.4848796)" /><linearGradient
   inkscape:collect="always"
   xlink:href="#linearGradient4198"
   id="linearGradient4231"
   gradientUnits="userSpaceOnUse"
   x1="271.04184"
   y1="13.501218"
   x2="390.29242"
   y2="190.96297" /><linearGradient
   inkscape:collect="always"
   xlink:href="#linearGradient4198"
   id="linearGradient4233"
   gradientUnits="userSpaceOnUse"
   x1="271.04184"
   y1="13.501218"
   x2="404.1499"
   y2="221.93661" /></defs><sodipodi:namedview
   pagecolor="#ffffff"
   bordercolor="#666666"
   borderopacity="1"
   objecttolerance="10"
   gridtolerance="10"
   guidetolerance="10"
   inkscape:pageopacity="0"
   inkscape:pageshadow="2"
   inkscape:window-width="1920"
   inkscape:window-height="1018"
   id="namedview3009"
   showgrid="false"
   inkscape:zoom="1"
   inkscape:cx="132.83987"
   inkscape:cy="185.08094"
   inkscape:window-x="-8"
   inkscape:window-y="-8"
   inkscape:window-maximized="1"
   inkscape:current-layer="Layer_1"
   showguides="true"
   inkscape:guide-bbox="true" />

<g
   transform="matrix(1.185083,0.04677063,-0.03325062,0.84251048,0,0)"
   style="font-size:102.82791901px;font-style:normal;font-weight:normal;line-height:125%;letter-spacing:0px;word-spacing:0px;fill:#000000;fill-opacity:1;stroke:none;font-family:Sans"
   id="text3022" /><g
   id="g4235"><path
     style="fill:#ffffff"
     id="path3047"
     d="m 373.2,262.3 c 19.4,0 35.2,-15.8 35.2,-35.2 0,-19.4 -15.7,-35.2 -35.2,-35.2 -19.4,0 -35.2,15.7 -35.2,35.2 0,19.5 15.7,35.2 35.2,35.2 z"
     inkscape:connector-curvature="0" /><g
     transform="translate(-17.13861,-6.4848796)"
     style="fill:url(#linearGradient4208);fill-opacity:1"
     id="g3043">
		<path
   style="fill:url(#linearGradient4206);fill-opacity:1"
   id="path3045"
   d="m 457.6,140.2 -82.5,-4 -4.8,-53.8 C 369.3,71.1 359.2,63.2 347.4,64.1 L 51.4,88.4 C 39.6,89.4 31.1,98.9 32,110.1 l 21.2,235.8 c 1,11.3 11.2,19.2 22.9,18.3 l 15,-1.2 -2.4,45.8 c -0.6,12.6 9.2,22.8 22.4,23.5 L 441.3,448 c 13.2,0.6 24.1,-8.6 24.8,-21.2 L 480,163.5 c 0.6,-12.5 -9.3,-22.7 -22.4,-23.3 z m -355,5.3 -7.1,134.8 -17.4,24.7 -16,-178 c 0,-0.2 0,-0.3 0,-0.5 0,-0.2 0,-0.3 0,-0.5 0.5,-5 4.3,-9 9.5,-9.4 l 261,-21.4 c 5.2,-0.4 9.7,3 10.5,7.9 0,0.2 0.3,0.2 0.3,0.4 0,0.1 0.3,0.2 0.3,0.4 l 2.7,30.8 -219,-10.5 c -13.2,-0.4 -24.2,8.8 -24.8,21.3 z M 436.7,382.4 C 404.42412,380.89098 125.00059,367.70718 122.6,367.2 l 0.3,-6.8 6.8,-128.9 3.3,-62.9 c 0,-0.2 0,-0.4 0,-0.5 0,-0.2 0,-0.4 0,-0.5 1.4,-5.4 6.2,-9.3 11.9,-9 l 204.2,9.8 28.7,1.4 58.3,2.8 c 5.8,0.3 10.3,4.7 10.4,10.2 0,0.2 0.3,0.3 0.3,0.5 0,0.2 0.3,0.3 0.3,0.5 z"
   inkscape:connector-curvature="0"
   sodipodi:nodetypes="cccccccccccccccccccsccccscccccccccsccccccscc" />
	</g><g
     id="text3015"
     style="font-size:185.31149292000001000px;font-style:normal;font-weight:normal;line-height:125%;letter-spacing:0px;word-spacing:0px;fill:url(#linearGradient4231);fill-opacity:1;stroke:none;font-family:Sans"
     transform="matrix(0.86254558,0.84954619,-0.57961268,0.58848166,-17.13861,-6.4848796)"><path
       sodipodi:nodetypes="ccccccccc"
       inkscape:connector-curvature="0"
       id="path3020"
       style="font-variant:normal;font-weight:bold;font-stretch:normal;fill:url(#linearGradient4233);fill-opacity:1;font-family:Arial;-inkscape-font-specification:Arial Bold"
       d="m 284.4803,210.65546 -3.03139,-212.6746461 78.54547,5.7787573 -0.9099,-61.4525552 31.82483,1.864604 1.92298,104.910751 -80.74425,0.625728 2.937,120.193651 z" /></g><path
     sodipodi:nodetypes="cccccccccccccc"
     inkscape:connector-curvature="0"
     id="path3027"
     style="font-size:102.82791900999999000px;font-style:normal;font-variant:normal;font-weight:bold;font-stretch:normal;line-height:125%;letter-spacing:0px;word-spacing:0px;fill:url(#linearGradient4223);fill-opacity:1;stroke:none;font-family:Arial;-inkscape-font-specification:Arial Bold"
     d="m 319.95669,369.97607 30.67989,-32.56777 -18.98195,-20.31378 21.38279,-22.89826 19.56861,19.93868 51.8864,-56.40548 -2.72444,53.29641 -25.92019,27.93194 23.2182,24.70962 -0.52567,11.14226 -34.71083,-1.42745 -10.13728,-10.71198 -9.16463,9.45453 z" /><text
     sodipodi:linespacing="125%"
     id="text3408"
     y="253.69261"
     x="315.98129"
     style="font-size:103.26535797000000000px;font-style:normal;font-weight:normal;line-height:125%;letter-spacing:0px;word-spacing:0px;fill:url(#linearGradient4220);fill-opacity:1;stroke:none;font-family:Sans"
     xml:space="preserve"><tspan
       style="font-style:normal;font-variant:normal;font-weight:bold;font-stretch:normal;fill:url(#linearGradient4220);fill-opacity:1;font-family:Aharoni;-inkscape-font-specification:Aharoni Bold"
       y="253.69261"
       x="315.98129"
       id="tspan3410"
       sodipodi:role="line">G</tspan></text>
</g></svg>